<svg data-v-423bf9ae="" xmlns="http://www.w3.org/2000/svg" viewBox="0 0 384.55841078200746 163" class="iconAbove"><!----><!----><!----><g data-v-423bf9ae="" id="ceae9b29-2001-44e5-9647-3d6a223c9a6c" fill="black" transform="matrix(5.698005199432373,0,0,5.698005199432373,-4.387462615966797,80.26496124267578)"><path d="M4.87 14.52C6.57 14.52 7.74 13.66 8.40 12.25L7.13 11.48C6.78 12.43 6.03 13.10 4.87 13.10C3.37 13.10 2.45 12.01 2.45 10.21L2.45 8.72C2.45 6.92 3.37 5.82 4.87 5.82C6.01 5.82 6.69 6.43 7.03 7.35L8.36 6.62C7.70 5.17 6.57 4.41 4.87 4.41C2.32 4.41 0.77 6.19 0.77 9.46C0.77 12.74 2.32 14.52 4.87 14.52ZM12.82 14.52C14.85 14.52 16.17 13.03 16.17 10.71C16.17 8.39 14.85 6.90 12.82 6.90C10.79 6.90 9.48 8.39 9.48 10.71C9.48 13.03 10.79 14.52 12.82 14.52ZM12.82 13.26C11.79 13.26 11.09 12.61 11.09 11.33L11.09 10.09C11.09 8.81 11.79 8.16 12.82 8.16C13.86 8.16 14.56 8.81 14.56 10.09L14.56 11.33C14.56 12.61 13.86 13.26 12.82 13.26ZM22.44 14.35L23.97 14.35L23.97 3.99L22.44 3.99L22.44 8.27L22.37 8.27C22.06 7.41 21.29 6.90 20.33 6.90C18.49 6.90 17.43 8.32 17.43 10.71C17.43 13.10 18.49 14.52 20.33 14.52C21.29 14.52 22.06 14 22.37 13.15L22.44 13.15ZM20.79 13.20C19.74 13.20 19.04 12.46 19.04 11.34L19.04 10.08C19.04 8.96 19.74 8.22 20.79 8.22C21.71 8.22 22.44 8.72 22.44 9.46L22.44 11.96C22.44 12.70 21.71 13.20 20.79 13.20ZM29.01 14.52C30.37 14.52 31.43 13.93 31.98 13.05L31.08 12.17C30.66 12.84 30.06 13.26 29.16 13.26C27.93 13.26 27.24 12.46 27.24 11.34L27.24 11.10L32.24 11.10L32.24 10.53C32.24 8.51 31.15 6.90 29.01 6.90C26.94 6.90 25.66 8.39 25.66 10.71C25.66 13.03 26.94 14.52 29.01 14.52ZM29.01 8.09C30.02 8.09 30.63 8.83 30.63 9.95L30.63 10.09L27.24 10.09L27.24 10.00C27.24 8.88 27.96 8.09 29.01 8.09ZM35.46 14.35L35.46 9.70C35.46 8.95 36.13 8.54 37.34 8.54L37.94 8.54L37.94 7.07L37.53 7.07C36.37 7.07 35.74 7.73 35.53 8.47L35.46 8.47L35.46 7.07L33.94 7.07L33.94 14.35ZM41.61 14.52C43.36 14.52 44.49 13.58 44.49 12.18C44.49 11.00 43.78 10.30 42.18 10.07L41.51 9.98C40.74 9.86 40.39 9.60 40.39 9.04C40.39 8.50 40.78 8.13 41.62 8.13C42.41 8.13 43.02 8.51 43.40 8.96L44.34 8.06C43.68 7.34 42.94 6.90 41.62 6.90C40.03 6.90 38.92 7.73 38.92 9.14C38.92 10.49 39.83 11.13 41.31 11.31L41.99 11.40C42.74 11.49 43.02 11.84 43.02 12.31C43.02 12.92 42.57 13.29 41.69 13.29C40.82 13.29 40.17 12.89 39.63 12.25L38.65 13.15C39.34 14 40.24 14.52 41.61 14.52ZM47.07 14.52C47.75 14.52 48.09 14.11 48.09 13.57L48.09 13.36C48.09 12.81 47.75 12.40 47.07 12.40C46.38 12.40 46.05 12.81 46.05 13.36L46.05 13.57C46.05 14.11 46.38 14.52 47.07 14.52ZM52.84 14.52C54.24 14.52 55.23 13.86 55.71 12.67L54.54 12.05C54.24 12.78 53.72 13.26 52.84 13.26C51.72 13.26 51.14 12.49 51.14 11.37L51.14 10.07C51.14 8.95 51.72 8.18 52.84 8.18C53.66 8.18 54.18 8.61 54.39 9.28L55.65 8.69C55.22 7.62 54.29 6.90 52.84 6.90C50.74 6.90 49.53 8.39 49.53 10.71C49.53 13.03 50.74 14.52 52.84 14.52ZM63.35 14.35L63.35 13.10L62.58 13.10L62.58 9.45C62.58 7.83 61.53 6.90 59.65 6.90C58.24 6.90 57.39 7.50 56.91 8.32L57.82 9.14C58.18 8.57 58.70 8.15 59.56 8.15C60.58 8.15 61.05 8.67 61.05 9.55L61.05 10.16L59.74 10.16C57.71 10.16 56.63 10.91 56.63 12.35C56.63 13.66 57.48 14.52 58.98 14.52C60.05 14.52 60.83 14.04 61.11 13.13L61.18 13.13C61.28 13.85 61.70 14.35 62.50 14.35ZM59.42 13.36C58.66 13.36 58.18 13.02 58.18 12.38L58.18 12.12C58.18 11.49 58.70 11.14 59.77 11.14L61.05 11.14L61.05 12.19C61.05 12.91 60.35 13.36 59.42 13.36ZM68.15 14.35L68.15 13.10L66.74 13.10L66.74 8.32L68.26 8.32L68.26 7.07L66.74 7.07L66.74 5.08L65.37 5.08L65.37 6.36C65.37 6.86 65.20 7.07 64.69 7.07L64.08 7.07L64.08 8.32L65.21 8.32L65.21 12.77C65.21 13.76 65.77 14.35 66.82 14.35Z"></path></g><!----><g data-v-423bf9ae="" id="58b7b681-f06e-4b95-8984-5bb26b761107" transform="matrix(1.384683609008789,0,0,1.384683609008789,123.38982391357422,-26.312835693359375)" stroke="none" fill="black"><path d="M85.878 38.09c-4.859-11.382-16.267-19.08-28.829-19.08-8.907 0-17.232 3.728-23.118 10.184a26.56 26.56 0 0 0-6.413-.793C12.842 28.4.903 40.31.903 54.986c0 15.374 11.247 26.9 21.711 28.877.912.19 2.356.137 30.147.137h23.976C88.863 84 99.5 72.602 99.5 59.479c0-9.333-5.554-17.737-13.622-21.389zM76.737 71H52.761c-21.373 0-26.734.062-28.038.025-5.608-1.283-10.82-8.915-10.82-16.04 0-7.509 6.108-13.556 13.615-13.556 2.052 0 4.024.444 5.864 1.325a6.501 6.501 0 0 0 8.266-2.339c3.4-5.263 9.158-8.413 15.401-8.413 8.021 0 15.234 5.345 17.545 13.017.654 2.176 2.397 3.822 4.596 4.391 4.1 1.061 7.311 5.451 7.311 10.07C86.5 65.353 81.664 71 76.737 71z"></path></g><!----></svg>